<?xml version="1.0" encoding="utf-8"?>
<svg xmlns="http://www.w3.org/2000/svg" width="1024" height="535" viewBox="351.402 100.682 319.88 337.584">
  <path fill="#154569" transform="scale(0.727273 0.727273)" d="M712.539 140.686C724.595 141.463 735.336 143.158 747.18 145.341C749.106 155.603 750.851 165.898 752.413 176.221C771.342 182.088 790.017 188.875 806.362 200.396C814.509 194.844 824.242 187.826 832.499 182.741C851.747 197.215 870.487 215.799 883.815 235.81C877.394 244.359 870.195 253.664 864.164 262.475C875.3 281.937 881.199 296.428 886.102 318.604C895.763 320.469 908.142 322.763 917.846 323.966C923.145 354.44 923.133 369.918 917.82 400.344C907.375 401.782 896.948 403.351 886.543 405.052C881.282 426.974 875.071 442.063 864.553 461.91C870.634 470.448 876.897 478.855 883.338 487.126C871.984 506.5 851.345 529.221 832.526 541.703C823.553 535.815 814.7 529.745 805.973 523.499C789.354 534.234 771.299 542.564 752.346 548.244C750.786 559.646 749.064 571.026 747.18 582.379C737.844 585.42 722.837 588.037 712.817 588.696L712.793 525.875L712.78 504.205C717.214 503.627 721.562 503.028 725.95 502.151C762.883 494.854 795.426 473.242 816.469 442.038C837.657 410.067 845.333 371.015 837.819 333.406C829.851 294.119 808.429 264.008 775.234 241.975C753.962 228.795 736.608 223.756 712.444 219.597C712.604 212.136 712.634 204.672 712.534 197.21C712.587 179.141 713.112 158.618 712.539 140.686Z"/>
  <defs>
    <linearGradient id="gradient_0" gradientUnits="userSpaceOnUse" x1="831.76752" y1="462.35217" x2="696.328" y2="307.45682">
      <stop offset="0" stop-color="#C42C2A"/>
      <stop offset="1" stop-color="#6A3142"/>
    </linearGradient>
  </defs>
  <path fill="url(#gradient_0)" transform="scale(0.727273 0.727273)" d="M775.234 241.975C778.005 235.122 785.276 232.263 791.948 229.733C793.664 229.083 795.663 230.104 797.495 230.649C801.44 232.771 809.083 239.622 812.353 242.784C832.655 262.195 847.584 286.528 855.688 313.416C868.609 356.304 863.801 402.578 842.341 441.897C822.11 479.347 787.921 507.311 747.193 519.722C737.687 522.531 722.809 525.892 712.793 525.875L712.78 504.205C717.214 503.627 721.562 503.028 725.95 502.151C762.883 494.854 795.426 473.242 816.469 442.038C837.657 410.067 845.333 371.015 837.819 333.406C829.851 294.119 808.429 264.008 775.234 241.975Z"/>
  <defs>
    <linearGradient id="gradient_1" gradientUnits="userSpaceOnUse" x1="778.37909" y1="244.38268" x2="718.16052" y2="193.88622">
      <stop offset="0" stop-color="#673142"/>
      <stop offset="1" stop-color="#3A3750"/>
    </linearGradient>
  </defs>
  <path fill="url(#gradient_1)" transform="scale(0.727273 0.727273)" d="M712.534 197.21C739.114 200.987 760.597 206.4 783.808 220.994C787.245 223.154 794.752 227.88 797.495 230.649C795.663 230.104 793.664 229.083 791.948 229.733C785.276 232.263 778.005 235.122 775.234 241.975C753.962 228.795 736.608 223.756 712.444 219.597C712.604 212.136 712.634 204.672 712.534 197.21Z"/>
  <path fill="#1987B8" transform="scale(0.727273 0.727273)" d="M490.305 223.013C496.694 226.945 513.59 238.367 518.944 240.836L520.499 240.805C521.988 243.545 543.792 256.226 548.204 259.447C547.995 264.753 547.641 270.445 548.083 275.704C548.435 296.563 548.802 310.577 551.633 331.173L594.11 331.073L594.135 362.333L594.172 393.613L566.364 393.631C585.496 443.877 617.495 485.639 662.701 515.253C674.363 522.892 684.183 527.493 696.385 533.744L696.376 567.039L696.33 600.645C644.779 581.135 599.014 548.887 563.308 506.911C510.553 443.718 489.882 364.644 487.149 283.316C486.46 262.813 488.472 243.378 490.305 223.013Z"/>
  <path fill="#154569" transform="scale(0.727273 0.727273)" d="M526.868 362.293C548.87 362.689 571.93 362.201 594.135 362.333L594.172 393.613L566.364 393.631C585.496 443.877 617.495 485.639 662.701 515.253C674.363 522.892 684.183 527.493 696.385 533.744L696.376 567.039C688.792 565.502 656.472 547.57 649.63 543.039C581.609 497.995 544.895 440.199 526.868 362.293Z"/>
  <path fill="#165781" transform="scale(0.727273 0.727273)" d="M518.944 240.836L520.499 240.805C521.988 243.545 543.792 256.226 548.204 259.447C547.995 264.753 547.641 270.445 548.083 275.704C548.435 296.563 548.802 310.577 551.633 331.173L594.11 331.073L594.135 362.333C571.93 362.201 548.87 362.689 526.868 362.293C521.273 333.362 518.002 311.777 517.561 281.818C517.395 270.46 519.6 250.251 518.944 240.836Z"/>
  <path fill="#154569" transform="scale(0.727273 0.727273)" d="M490.305 223.013C504.034 213.519 525.12 202.752 540.28 196.046C589.271 173.794 642.153 161.361 695.93 159.452C695.956 165.974 695.947 172.496 695.906 179.017C696.675 191.655 696.209 207.631 696.167 220.515C644.554 221.89 593.994 235.426 548.602 260.021C548.506 264.176 548.547 271.835 548.083 275.704C547.641 270.445 547.995 264.753 548.204 259.447C543.792 256.226 521.988 243.545 520.499 240.805L518.944 240.836C513.59 238.367 496.694 226.945 490.305 223.013Z"/>
  <path fill="#1987B8" transform="scale(0.727273 0.727273)" d="M695.906 179.017C696.675 191.655 696.209 207.631 696.167 220.515C644.554 221.89 593.994 235.426 548.602 260.021C548.506 264.176 548.547 271.835 548.083 275.704C547.641 270.445 547.995 264.753 548.204 259.447C543.792 256.226 521.988 243.545 520.499 240.805C527.852 237.516 537.707 230.68 546.502 226.576C591.251 205.692 646.147 190.763 695.755 190.288C695.662 186.407 695.775 182.885 695.906 179.017Z"/>
  <path fill="#1987B8" transform="scale(0.727273 0.727273)" d="M735.733 264.712C755.014 263.6 777.106 284.771 795.443 291.486C799.32 292.905 809.291 295.832 810.992 298.882C807.059 307.793 797.563 304.597 790.182 305.626C790.931 306.577 791.674 307.532 792.413 308.491C790.287 316.374 775.549 312.805 770.312 311.27L769.718 311.918C771.82 313.662 772.945 315.056 772.386 317.818C766.751 322.11 755.632 318.424 749.64 316.391C751.722 322.198 749.842 323.199 744.024 323.522C738.204 323.845 735.438 319.36 729.882 318.075C729.814 319.542 729.659 320.448 729.416 321.9C724.586 325.625 717.128 321.181 712.966 318.233C712.878 310.144 713.288 301.42 713.521 293.29C727.579 284.163 718.153 271.26 735.733 264.712Z"/>
  <path fill="#1987B8" transform="scale(0.727273 0.727273)" d="M662.782 264.684C681.747 262.815 680.011 276.706 686.477 288.52C687.267 289.963 690.6 292.401 692.022 293.456C692.286 301.313 692.256 309.699 692.357 317.598C688.417 321.104 682.86 324.569 677.456 322.655C675.835 320.5 676.312 320.918 676.002 317.902C667.82 319.503 665.012 328.44 654.638 320.754L654.508 319.622C655.493 318.348 656.155 317.699 656.579 316.154C645.923 317.043 647.941 324.614 634.27 317.851L633.323 316.365C633.413 314.104 635.094 312.695 636.667 310.855C628.758 313.666 621.217 316.21 614.23 310.144C613.512 307.674 613.758 308.543 615.352 305.585C609.244 306.27 598.887 306.573 594.831 299.218C594.586 298.774 595.081 298.231 595.368 297.67C601.076 294.69 610.81 291.232 618 287.671C632.47 280.505 647.771 268.423 662.782 264.684Z"/>
  <path fill="#165781" transform="scale(0.727273 0.727273)" d="M732.053 328.681C753.597 328.778 766.65 347.534 751.749 365.08C733.775 386.248 700.688 377.831 682.695 395.26C675.745 401.992 690.647 412.174 696.134 415.547C692.019 418.403 690.193 419.734 686.577 423.194C684.305 421.762 681.854 420.008 679.612 418.48C672.179 412.297 666.933 403.686 669.675 393.686C677.759 364.2 715.882 374.681 736.111 360.579C741.284 356.973 747.28 351.33 742.931 344.745C735.852 339.387 720.568 352.845 713.957 342.169C713.411 335.05 726.055 329.513 732.053 328.681Z"/>
  <path fill="#165781" transform="scale(0.727273 0.727273)" d="M728.496 382.958C738.852 391.315 737.695 406.232 728.85 415.221C720.452 424.846 706.659 426.003 697.016 433.323C688.006 440.163 692.152 447.485 697.651 454.055C696.189 455.64 694.898 457.324 692.892 458.088C690.079 457.704 690.502 457.422 687.935 455.429C677.77 445.014 679.181 432.252 690.575 423.667C699.334 416.687 712.915 414.966 719.932 405.788C726.57 397.106 718.426 390.958 711.976 386.787C717.627 385.73 722.933 384.364 728.496 382.958Z"/>
  <path fill="#165781" transform="scale(0.727273 0.727273)" d="M666.669 329.316C678.156 327.982 681.996 330.581 689.673 338.562C691.09 340.036 692.029 341.439 691.928 343.518C685.727 350.149 665.563 341.779 663.526 343.578C649.236 356.2 679.572 366.027 684.015 367.339L690.935 369.345C683.879 372.198 681.018 373.936 674.948 378.412C671.801 377.153 668.069 375.75 665.142 374.115C641.366 360.831 638.544 337.964 666.669 329.316Z"/>
  <path fill="#165781" transform="scale(0.727273 0.727273)" d="M695.984 284.12C700.887 285.529 704.457 285.265 709.459 285.13C709.737 309.379 708.963 342.214 707.653 366.348L697.105 368.071C696.77 341.141 695.166 310.745 695.984 284.12Z"/>
  <defs>
    <linearGradient id="gradient_2" gradientUnits="userSpaceOnUse" x1="697.58051" y1="435.10992" x2="714.27106" y2="484.92325">
      <stop offset="0" stop-color="#1B658D"/>
      <stop offset="1" stop-color="#2E7DAA"/>
    </linearGradient>
  </defs>
  <path fill="url(#gradient_2)" transform="scale(0.727273 0.727273)" d="M717.011 427.407C718.233 428.272 720.224 430.666 720.8 431.981C732.558 458.825 699.015 459.131 694.216 476.074L694.099 476.499C692.573 481.879 697.253 489.167 697.461 492.843L696.385 493.039C678.763 475.436 690.595 462.918 706.19 452.245C715.002 446.215 713.758 439.408 707.468 431.839L717.011 427.407Z"/>
  <path fill="#165781" transform="scale(0.727273 0.727273)" d="M700.175 257.953C706.629 256.63 712.963 260.687 714.457 267.1C715.952 273.514 712.063 279.951 705.688 281.614C701.411 282.729 696.866 281.437 693.817 278.238C690.768 275.04 689.697 270.439 691.018 266.224C692.339 262.008 695.846 258.841 700.175 257.953Z"/>
  <path fill="#165781" transform="scale(0.727273 0.727273)" d="M705.306 387.816L706.551 387.816C708.359 390.754 707.173 407.593 706.942 411.74L700.072 414.379L698.733 414.32C697.14 412.078 697.869 393.17 697.921 389.264C699.698 388.746 703.344 388.178 705.306 387.816Z"/>
  <defs>
    <linearGradient id="gradient_3" gradientUnits="userSpaceOnUse" x1="716.71307" y1="468.24585" x2="703.17175" y2="487.11505">
      <stop offset="0" stop-color="#255272"/>
      <stop offset="1" stop-color="#357BA2"/>
    </linearGradient>
  </defs>
  <path fill="url(#gradient_3)" transform="scale(0.727273 0.727273)" d="M711.25 462.918C716.569 463.709 717.769 474.33 716.573 478.578C714.653 485.399 713.557 487.62 708.634 492.617L708.354 492.602C706.562 491.269 710.408 487.275 710.854 483.61C711.501 478.289 709.355 472.315 708.024 467.044C708.695 464.506 708.907 464.978 711.25 462.918Z"/>
  <path fill="#165781" transform="scale(0.727273 0.727273)" d="M703.544 467.775C706.214 469.634 704.854 502.126 701.839 505.44C700.018 497.648 699.902 482.655 699.905 474.203C699.906 470.405 701.131 469.859 703.544 467.775Z"/>
  <path fill="#165781" transform="scale(0.727273 0.727273)" d="M703.256 432.615C704.453 432.63 704.538 432.768 705.593 433.278C706.733 436.49 706.543 442.064 705.917 445.439C705.01 450.325 704.827 449.765 701.156 452.387L700.156 452.394C698.413 449.838 698.876 440.14 699.469 436.789C699.933 434.167 701.093 434.024 703.256 432.615Z"/>
</svg>